<?xml version="1.0" encoding="utf-8"?>
<!-- Generator: Adobe Illustrator 24.0.0, SVG Export Plug-In . SVG Version: 6.00 Build 0)  -->
<svg version="1.1" id="图层_1" xmlns="http://www.w3.org/2000/svg" xmlns:xlink="http://www.w3.org/1999/xlink" x="0px" y="0px"
	 viewBox="0 0 394 394" style="enable-background:new 0 0 394 394;" xml:space="preserve">
<path d="M197,0C88.2,0,0,88.2,0,197s88.2,197,197,197s197-88.2,197-197S305.8,0,197,0z M129.53,191.33
	c14.19-21.35,58.66-33.13,58.16-122.18c0,0,31.72,19.97,41.07,62.65s-8.54,57.32-34.56,82.93c-26.02,25.61-49.58,72.56-48.29,94.76
	C145.91,309.5,83.7,260.29,129.53,191.33z M267.68,288.75c-24.33,41.09-82.17,37.74-94.38,34.06c0,0-8.29-2.34-3.4-6.16
	c4.89-3.83,10.41,1.7,12.11-17.21c1.7-18.91,14.57-32.55,25.33-43.89s44.22-44.59,51.56-69.32c3.59-12.09,6.24-14.39,12.47,3.1
	C277.6,206.81,292.01,247.65,267.68,288.75z"/>
</svg>
